<?xml version="1.0" standalone="no"?><!DOCTYPE svg PUBLIC "-//W3C//DTD SVG 1.1//EN" "http://www.w3.org/Graphics/SVG/1.1/DTD/svg11.dtd"><svg t="1617605825263" class="icon" viewBox="0 0 1024 1024" version="1.1" xmlns="http://www.w3.org/2000/svg" p-id="1208" xmlns:xlink="http://www.w3.org/1999/xlink" width="200" height="200"><defs><style type="text/css"></style></defs><path d="M251.240591 209.343526L223.040655 225.967488l28.615935-16.551962z" fill="#D1D1D1" p-id="1209"></path><path d="M841.015255 638.606553l-133.151699 76.879826v-0.04c-2.911993-10.983975-4.52799-22.10395-4.527989-32.759926l-0.176-563.462723c0-45.359897-29.047934-99.119775-63.703856-115.039739-12.479972-5.735987-23.671946-5.367988-32.535926-0.152L606.895785 3.999991 223.048655 225.959488S187.024736 247.08744 182.984745 291.39134c-3.367992 36.975916 0 93.759788 0 93.759787l131.647702-76.007827c2.807994 10.799976 4.39999 21.711951 4.39999 32.175927l0.16 563.462723c0 45.359897 29.055934 99.119775 63.703856 115.039739 12.463972 5.727987 23.647946 5.367988 32.511926 0.168l0.032-0.016 0.016 0.032 385.495126-222.215496s36.023918-21.119952 40.06391-65.423852c3.375992-36.975916 0-93.751788 0-93.751788z" fill="#C8CED6" p-id="1210"></path><path d="M255.320582 226.279487c-12.343972-5.679987-23.439947-5.383988-32.271927-0.319999 0 0-36.023918 21.119952-40.06391 65.423852-3.367992 36.975916 0 93.759788 0 93.759787l131.663702-76.023827c-9.351979-35.967919-32.679926-70.59984-59.319865-82.839813zM376.408307 418.047053L560.36789 311.359295v61.71986L376.400307 479.758913zM601.647797 287.247349l52.527881-30.431931v61.71986l-52.527881 30.423931zM376.408307 569.55871l183.959583-106.687759v61.71186L376.400307 631.27857zM601.647797 438.751006l52.527881-30.423931v61.71186l-52.527881 30.431931zM376.408307 721.062366l183.959583-106.687758v61.71986L376.400307 782.774227zM601.647797 590.262663l52.527881-30.431931v61.71986l-52.527881 30.423931z" fill="#8392A5" p-id="1211"></path><path d="M841.015255 638.606553l-404.879083 233.631471v98.623776c0 24.047946-7.951982 41.623906-20.735953 49.119889l0.04-0.016 0.016 0.032 385.495126-222.215496s36.023918-21.119952 40.06391-65.415852c3.375992-36.983916 0-93.759788 0-93.759788z" fill="#E8EDEF" p-id="1212"></path></svg>