<?xml version="1.0" standalone="no"?><!DOCTYPE svg PUBLIC "-//W3C//DTD SVG 1.1//EN" "http://www.w3.org/Graphics/SVG/1.1/DTD/svg11.dtd"><svg t="1617605956855" class="icon" viewBox="0 0 1024 1024" version="1.1" xmlns="http://www.w3.org/2000/svg" p-id="1203" xmlns:xlink="http://www.w3.org/1999/xlink" width="200" height="200"><defs><style type="text/css"></style></defs><path d="M915.584 0L72.184 486.944v516.128L108.424 1024l843.392-486.928V20.88z" fill="#D88A55" p-id="1204"></path><path d="M108.432 1024V507.808L951.824 20.88v516.192z" fill="#FFD2A6" p-id="1205"></path><path d="M684.072 225.4a5.336 5.336 0 0 1-5.336-5.344v-16.008a5.336 5.336 0 0 1 10.672 0v16.016a5.336 5.336 0 0 1-5.336 5.336zM684.072 619.496a5.336 5.336 0 0 1-5.336-5.344v-32.84c0-6.896 10.672-6.896 10.672 0v32.84a5.336 5.336 0 0 1-5.336 5.344z m0-65.68a5.336 5.336 0 0 1-5.336-5.344v-32.84c0-6.904 10.672-6.904 10.672 0v32.84a5.336 5.336 0 0 1-5.336 5.344z m0-65.688a5.336 5.336 0 0 1-5.336-5.336v-32.84c0-6.904 10.672-6.904 10.672 0v32.84a5.336 5.336 0 0 1-5.336 5.336z m0-65.68a5.336 5.336 0 0 1-5.336-5.336v-32.848c0-6.896 10.672-6.896 10.672 0v32.84a5.336 5.336 0 0 1-5.336 5.344z m0-65.68a5.336 5.336 0 0 1-5.336-5.344v-32.84c0-6.904 10.672-6.904 10.672 0v32.84a5.336 5.336 0 0 1-5.336 5.344z m0-65.68a5.336 5.336 0 0 1-5.336-5.344v-32.84c0-6.904 10.672-6.904 10.672 0v32.84a5.336 5.336 0 0 1-5.336 5.336zM684.072 668.352a5.336 5.336 0 0 1-5.336-5.344v-16.008a5.336 5.336 0 0 1 10.672 0v16.008a5.336 5.336 0 0 1-5.336 5.344z" fill="#FCBC90" p-id="1206"></path><path d="M251.44 654.8c0 34.328-9.528 73.752-39.68 94.128-35.68 24.096-47.896-13.904-47.968-43.528-0.08-33.04 8.712-70.872 36.784-91.496 35.672-26.2 50.856 8.752 50.856 40.896z m-52.664 31.024c0 6.32-2 30.632 8.832 28.528 10.24-1.984 8.728-32.128 8.72-38.664 0-6.424 2.08-30.504-8.72-28.6-10.208 1.808-8.832 32.224-8.832 38.736z m137.392-147.52l-94.264 281.008-34.528 19.936L301.648 558.24l34.52-19.936z m44.52 132.072c0 34.248-9.64 73.656-39.704 93.984-35.568 24.04-47.864-13.808-47.936-43.384-0.08-33.04 8.712-70.88 36.776-91.496 35.68-26.208 50.864 8.752 50.864 40.896z m-52.656 31.016c0 3.28-0.808 34.104 8.832 28.536 10.432-6.024 8.848-28.664 8.84-38.728-0.008-3.808 0.72-34.048-8.84-28.536-10.488 6.064-8.832 28.8-8.832 38.728zM415.192 441.68v40.608l223.392-128.56V313.2z" fill="#284363" p-id="1207"></path><path d="M415.192 536.12v40.608l63.144-36.4v-40.552zM496.728 488.744v40.616l63.152-36.416V452.4zM575.464 442.736v40.616l63.144-36.416V406.4z" fill="#FCBC90" p-id="1208"></path><path d="M733.912 447.824v40.608l138.32-79.984v-40.544z" fill="#2E527C" p-id="1209"></path><path d="M733.912 351.744v40.608L922.4 283.456v-40.552z" fill="#284363" p-id="1210"></path><path d="M733.912 543.216v40.616l138.32-79.992v-40.536zM445.504 714.184v29.6l162.776-93.84v-29.536zM445.504 646.576v29.592l162.776-93.832v-29.544z" fill="#2E527C" p-id="1211"></path><path d="M951.824 20.88L915.584 0 72.184 486.944l36.248 20.864z" fill="#FCBC90" p-id="1212"></path></svg>